<svg xmlns="http://www.w3.org/2000/svg" viewBox="0 0 320 200">
  <!-- sky --><rect width="320" height="200" fill="#70c5ce"/>
  <!-- clouds --><ellipse cx="60" cy="35" rx="30" ry="15" fill="white" opacity=".9"/>
  <ellipse cx="85" cy="30" rx="20" ry="12" fill="white" opacity=".9"/>
  <ellipse cx="220" cy="50" rx="25" ry="12" fill="white" opacity=".8"/>
  <!-- pipes (top) --><rect x="220" y="0" width="52" height="85" fill="#73bf2e"/>
  <rect x="215" y="72" width="62" height="18" rx="3" fill="#5da321"/>
  <!-- pipe bottom --><rect x="220" y="135" width="52" height="65" fill="#73bf2e"/>
  <rect x="215" y="130" width="62" height="18" rx="3" fill="#5da321"/>
  <!-- pipe 2 --><rect x="100" y="0" width="52" height="55" fill="#73bf2e"/>
  <rect x="95" y="42" width="62" height="18" rx="3" fill="#5da321"/>
  <rect x="100" y="120" width="52" height="80" fill="#73bf2e"/>
  <rect x="95" y="115" width="62" height="18" rx="3" fill="#5da321"/>
  <!-- bird --><circle cx="155" cy="105" r="14" fill="#ffd700"/>
  <ellipse cx="155" cy="105" rx="14" ry="12" fill="#ffd700"/>
  <circle cx="155" cy="103" r="11" fill="#f4c200"/>
  <!-- eye --><circle cx="160" cy="100" r="4" fill="white"/><circle cx="161" cy="100" r="2.5" fill="#1a1a1a"/>
  <!-- wing (flapping) --><ellipse cx="148" cy="110" rx="10" ry="6" fill="#f4a200" transform="rotate(-20,148,110)"/>
  <!-- beak --><polygon points="167,104 177,107 167,110" fill="#ff6600"/>
  <!-- ground --><rect x="0" y="180" width="320" height="20" fill="#ded895"/>
  <rect x="0" y="178" width="320" height="5" fill="#bab36a"/>
  <!-- score --><rect x="130" y="10" width="60" height="30" rx="5" fill="white" opacity=".8"/>
  <text x="160" y="31" text-anchor="middle" font-family="Arial Black" font-size="18" fill="#555">7</text>
</svg>