<svg xmlns="http://www.w3.org/2000/svg" viewBox="0 0 320 200">
  <rect width="320" height="200" fill="#050510"/>
  <!-- dots/orbs scattered --><circle cx="40" cy="50" r="4" fill="#ff3d6b" opacity=".8"/><circle cx="80" cy="30" r="3" fill="#00e5ff" opacity=".7"/><circle cx="150" cy="20" r="4" fill="#ffd600" opacity=".8"/><circle cx="200" cy="45" r="3" fill="#7c4dff" opacity=".7"/><circle cx="260" cy="25" r="4" fill="#00e676" opacity=".8"/><circle cx="300" cy="60" r="3" fill="#ff3d6b" opacity=".7"/>
  <circle cx="30" cy="150" r="3" fill="#ffd600" opacity=".6"/><circle cx="70" cy="170" r="4" fill="#00e5ff" opacity=".7"/><circle cx="250" cy="160" r="3" fill="#ff3d6b" opacity=".8"/><circle cx="290" cy="145" r="4" fill="#00e676" opacity=".7"/>
  <circle cx="100" cy="80" r="3" fill="#7c4dff"/><circle cx="220" cy="90" r="4" fill="#ffd600"/><circle cx="180" cy="130" r="3" fill="#00e5ff"/>
  <!-- big snake (player) - green glowing segments --><circle cx="160" cy="100" r="16" fill="#00e676"/><!-- head -->
  <circle cx="157" cy="96" r="4" fill="white"/><circle cx="163" cy="96" r="4" fill="white"/>
  <circle cx="157" cy="96" r="2" fill="black"/><circle cx="163" cy="96" r="2" fill="black"/>
  <!-- tongue --><line x1="160" y1="116" x2="155" y2="122" stroke="#ff3d6b" stroke-width="1.5"/><line x1="160" y1="116" x2="165" y2="122" stroke="#ff3d6b" stroke-width="1.5"/>
  <!-- body segments --><circle cx="143" cy="105" r="13" fill="#00cc60"/><circle cx="127" cy="108" r="11" fill="#00b856"/><circle cx="112" cy="109" r="10" fill="#00a04a"/>
  <circle cx="98" cy="107" r="9" fill="#009040"/><circle cx="85" cy="103" r="8" fill="#008038"/>
  <circle cx="74" cy="97" r="7" fill="#007030"/>
  <!-- enemy snake (red) --><circle cx="240" cy="140" r="10" fill="#ff3d6b"/>
  <circle cx="238" cy="137" r="3" fill="white"/><circle cx="243" cy="137" r="3" fill="white"/>
  <circle cx="238" cy="137" r="1.5" fill="black"/><circle cx="243" cy="137" r="1.5" fill="black"/>
  <circle cx="228" cy="145" r="8" fill="#cc2a55"/><circle cx="217" cy="148" r="7" fill="#aa1a44"/>
  <!-- title --><text x="160" y="190" text-anchor="middle" font-family="Arial Black,sans-serif" font-size="18" font-weight="900" fill="#00e676">SLITHER.IO</text>
</svg>